<svg width="15" height="24" viewBox="0 0 15 24" fill="none" xmlns="http://www.w3.org/2000/svg">
<path d="M12.75 0C13.375 0 13.9062 0.21875 14.3438 0.65625C14.7812 1.09375 15 1.625 15 2.25V21.75C15 22.375 14.7812 22.9062 14.3438 23.3438C13.9062 23.7812 13.375 24 12.75 24H2.25C1.625 24 1.09375 23.7812 0.65625 23.3438C0.21875 22.9062 0 22.375 0 21.75V2.25C0 1.625 0.21875 1.09375 0.65625 0.65625C1.09375 0.21875 1.625 0 2.25 0H12.75ZM6.42188 22.0312C6.73438 22.3438 7.09375 22.5 7.5 22.5C7.90625 22.5 8.25 22.3438 8.53125 22.0312C8.84375 21.75 9 21.4062 9 21C9 20.5938 8.84375 20.25 8.53125 19.9688C8.25 19.6562 7.90625 19.5 7.5 19.5C7.09375 19.5 6.73438 19.6562 6.42188 19.9688C6.14062 20.25 6 20.5938 6 21C6 21.4062 6.14062 21.75 6.42188 22.0312Z" fill="#D0122D"/>
</svg>
