<svg width="17" height="14" viewBox="0 0 17 14" fill="none" xmlns="http://www.w3.org/2000/svg">
<path opacity="0.5" d="M14.8438 3.75C15.4688 3.28125 16.0312 2.71875 16.5 2.03125C15.875 2.3125 15.25 2.5 14.625 2.5625C15.3125 2.125 15.8125 1.53125 16.0625 0.75C15.4062 1.125 14.7188 1.40625 13.9688 1.53125C13.6562 1.21875 13.2812 0.96875 12.875 0.78125C12.4688 0.59375 12.0312 0.5 11.5625 0.5C10.9688 0.5 10.4375 0.65625 9.9375 0.9375C9.4375 1.25 9.03125 1.65625 8.75 2.15625C8.4375 2.65625 8.3125 3.21875 8.3125 3.78125C8.3125 4.03125 8.3125 4.28125 8.375 4.53125C7.03125 4.46875 5.78125 4.15625 4.59375 3.53125C3.40625 2.9375 2.4375 2.125 1.625 1.09375C1.3125 1.625 1.15625 2.1875 1.15625 2.75C1.15625 3.3125 1.28125 3.84375 1.5625 4.3125C1.8125 4.8125 2.1875 5.1875 2.625 5.5C2.09375 5.5 1.59375 5.34375 1.15625 5.0625V5.125C1.15625 5.90625 1.40625 6.59375 1.90625 7.1875C2.40625 7.8125 3.03125 8.1875 3.78125 8.34375C3.46875 8.40625 3.1875 8.4375 2.90625 8.4375C2.71875 8.4375 2.5 8.4375 2.3125 8.40625C2.5 9.0625 2.875 9.59375 3.4375 10.0312C4 10.4688 4.625 10.6562 5.375 10.6562C4.15625 11.5938 2.78125 12.0625 1.28125 12.0625C0.96875 12.0625 0.71875 12.0625 0.5 12.0312C2 13.0312 3.6875 13.5 5.53125 13.5C7.4375 13.5 9.125 13.0312 10.625 12.0312C11.9688 11.1562 13.0312 10 13.7812 8.5C14.5 7.125 14.875 5.65625 14.875 4.15625C14.875 3.96875 14.8438 3.84375 14.8438 3.75Z" fill="white"/>
</svg>
