<svg width="9" height="16" viewBox="0 0 9 16" fill="none" xmlns="http://www.w3.org/2000/svg">
<path opacity="0.5" d="M8.21875 9H5.875V16H2.75V9H0.21875V6.09375H2.75V3.90625C2.75 3.07292 2.90625 2.36458 3.21875 1.78125C3.53125 1.19792 3.96875 0.760417 4.53125 0.46875C5.11458 0.15625 5.78125 0 6.53125 0C6.86458 0 7.21875 0.0208333 7.59375 0.0625C7.96875 0.0833333 8.26042 0.114583 8.46875 0.15625L8.78125 0.1875V2.65625H7.53125C6.94792 2.65625 6.52083 2.8125 6.25 3.125C6 3.41667 5.875 3.78125 5.875 4.21875V6.09375H8.65625L8.21875 9Z" fill="white"/>
</svg>
