<svg width="18" height="18" viewBox="0 0 18 18" fill="none" xmlns="http://www.w3.org/2000/svg">
<path opacity="0.5" d="M8.71875 0.53125C10.2656 0.53125 11.7422 0.953125 13.0781 1.72656C14.4141 2.5 15.4688 3.55469 16.2422 4.89062C17.0156 6.22656 17.4375 7.70312 17.4375 9.25C17.4375 10.832 17.0156 12.2734 16.2422 13.6094C15.4688 14.9453 14.4141 16.0352 13.0781 16.8086C11.7422 17.582 10.2656 17.9688 8.71875 17.9688C7.13672 17.9688 5.69531 17.582 4.35938 16.8086C3.02344 16.0352 1.93359 14.9453 1.16016 13.6094C0.386719 12.2734 0 10.832 0 9.25C0 7.70312 0.386719 6.22656 1.16016 4.89062C1.93359 3.55469 3.02344 2.5 4.35938 1.72656C5.69531 0.953125 7.13672 0.53125 8.71875 0.53125ZM13.0078 6.50781C13.043 6.22656 13.0078 6.05078 12.8672 5.91016C12.7266 5.76953 12.5859 5.73438 12.4102 5.80469L4.00781 9.07422C3.69141 9.17969 3.51562 9.28516 3.51562 9.42578C3.51562 9.56641 3.62109 9.67188 3.90234 9.74219L6.04688 10.4102L11.0391 7.28125C11.1445 7.21094 11.25 7.21094 11.3203 7.21094C11.3906 7.24609 11.3906 7.28125 11.3203 7.35156L7.27734 11.0078L7.10156 13.2227C7.24219 13.2227 7.41797 13.1523 7.55859 13.0117L8.61328 11.9922L10.793 13.6094C11.2148 13.8555 11.4609 13.75 11.5664 13.2578L13.0078 6.50781Z" fill="#D0122D"/>
</svg>
