<svg width="20" height="20" viewBox="0 0 20 20" fill="none" xmlns="http://www.w3.org/2000/svg">
<path d="M19.0654 17.34V20H0.93457V17.3394C0.93457 16.0832 2.0175 14.5369 3.34043 13.9085L6.28422 12.5099L8.32772 16.7683L9.37401 13.9315C9.58031 13.9706 9.78484 14.0226 10 14.0226C10.2152 14.0226 10.4191 13.9706 10.626 13.9315L11.6191 16.6288L13.6224 12.4626L16.6614 13.9079C17.9825 14.5363 19.0654 16.0826 19.0654 17.34ZM3.6088 8.01679V6.09564C3.6088 5.76994 3.77845 5.48442 4.03441 5.32009C4.37785 2.3302 6.92086 0 10.0012 0C13.0815 0 15.6251 2.3302 15.9691 5.32009C16.2245 5.48442 16.3942 5.76994 16.3942 6.09564V8.01679C16.3942 8.52693 15.981 8.94071 15.4702 8.94071C14.9595 8.94071 14.5463 8.52693 14.5463 8.01679V7.61305C14.0462 10.1283 12.2049 12.4632 10.0018 12.4632C7.79867 12.4632 5.95733 10.1283 5.45724 7.61305V8.01679C5.45724 8.43057 5.18237 8.77697 4.80701 8.8946C5.17468 10.146 5.99043 11.2272 7.11711 11.9365C7.32518 11.8679 7.58764 11.8809 7.84241 12.0134C8.25147 12.2262 8.46013 12.6399 8.30526 12.9355C8.15098 13.2311 7.69463 13.2973 7.28321 13.0839C6.98292 12.9272 6.79258 12.6642 6.77248 12.4183C5.48207 11.5931 4.56701 10.3298 4.18928 8.87273C3.84998 8.73677 3.6088 8.40575 3.6088 8.01679ZM4.66395 5.10433C4.69174 5.10611 4.71834 5.1067 4.74494 5.11675C4.81173 5.14157 4.86021 5.18945 4.8939 5.24561C5.09429 5.33073 5.25389 5.4862 5.35202 5.6789C5.62453 3.12467 7.59887 1.77336 10 1.77336C12.4011 1.77336 14.3755 3.12467 14.648 5.6789C14.7834 5.41349 15.0405 5.22374 15.3485 5.18413C14.9489 2.58734 12.7062 0.59053 10 0.59053C7.32164 0.591121 5.09665 2.54714 4.66395 5.10433Z" fill="white"/>
</svg>
