<svg width="260" height="99" viewBox="0 0 260 99" fill="none" xmlns="http://www.w3.org/2000/svg">
<mask id="mask0" mask-type="alpha" maskUnits="userSpaceOnUse" x="45" y="0" width="215" height="98">
<path d="M45.0703 97.656H259.741V0.00842285H152.406H45.0703V97.656Z" fill="white"/>
</mask>
<g mask="url(#mask0)">
<path fill-rule="evenodd" clip-rule="evenodd" d="M257.097 48.8243C244.063 75.7619 186.415 97.6924 128.773 97.6924C71.0724 97.6924 34.6835 75.7619 47.7163 48.8243C60.6971 21.9917 118.395 0.00842285 176.044 0.00842285C233.742 0.00842285 270.124 21.9917 257.097 48.8243Z" fill="#032B76"/>
<path fill-rule="evenodd" clip-rule="evenodd" d="M174.749 1.04907C230.81 1.04907 266.095 22.3551 253.343 48.4056C240.644 74.5107 184.531 95.8186 128.58 95.8186C72.521 95.8186 37.2338 74.5107 49.9317 48.4056C58.1744 31.611 84.2808 16.8722 116.766 8.41787C119.072 7.78682 121.437 7.27469 123.8 6.70128C139.957 3.10607 157.381 1.04907 174.749 1.04907Z" fill="#0A0A08"/>
<path fill-rule="evenodd" clip-rule="evenodd" d="M173.906 2.46594C229.261 2.46594 264.173 23.0287 251.671 48.1302C239.167 73.3288 183.861 93.8466 128.557 93.8466C73.2004 93.8466 38.289 73.3288 50.7939 48.1302C63.2474 23.0287 118.601 2.46594 173.906 2.46594Z" fill="#969998"/>
</g>
<path fill-rule="evenodd" clip-rule="evenodd" d="M165.083 6.75586C215.093 6.75586 246.57 25.1481 235.194 47.6368C223.866 70.1728 173.808 88.5669 123.897 88.5669C73.8879 88.5669 42.4092 70.1728 53.7364 47.6368C61.0898 33.1389 84.3784 20.4146 113.357 13.1174C115.415 12.5725 117.525 12.1302 119.632 11.6362C134.046 8.53131 149.589 6.75586 165.083 6.75586Z" fill="#0A0A08"/>
<path fill-rule="evenodd" clip-rule="evenodd" d="M226.987 29.1906C229.387 33.1996 229.831 37.7116 227.931 42.4421C226.151 46.0228 224.11 48.9056 221.069 51.7417C205.29 66.4041 169.785 77.3402 134.327 77.3402C92.5197 77.3402 66.1557 62.1445 75.6803 43.5149C82.2247 30.6905 104.402 19.0317 130.96 13.2703C134.085 12.5938 137.259 12.0616 140.482 11.5768C134.234 12.2072 128.12 13.1253 122.109 14.4311C92.6645 20.9656 67.6959 31.5157 60.4287 46.1284C49.8942 67.3725 79.0955 84.695 125.476 84.695C163.478 84.695 201.537 73.083 219.818 57.1603C221.882 55.3733 224.298 52.8485 226.195 50.1586C226.978 49.0701 227.664 47.9681 228.237 46.8559C231.509 40.4671 230.884 34.418 226.987 29.1906Z" fill="#0D5DB8"/>
<path fill-rule="evenodd" clip-rule="evenodd" d="M28.984 44.2909C28.0977 45.692 27.2085 46.7265 26.341 47.3667L26.3066 47.3928C25.3051 48.1846 23.9936 48.5869 22.4082 48.5869C21.3784 48.5869 20.6713 48.38 20.4741 48.0287C20.4535 47.9759 19.989 46.6883 21.423 42.0422C22.3714 39.0992 23.4766 36.9967 24.7079 35.7929C26.2366 34.2541 27.8769 33.5375 29.8702 33.5375C30.4964 33.5375 31.0164 33.6345 31.3331 33.8105C31.5702 33.9452 31.7579 34.0514 31.8321 34.9179L32.1216 38.3098H48.0169C47.0191 39.6393 46.1655 41.0725 45.4801 42.5731H30.0699L28.984 44.2909ZM67.5157 45.2769C66.9226 47.1756 66.1583 48.5548 65.3058 49.2623C64.4341 49.9643 63.7017 50.2774 62.9301 50.2774C62.7702 50.2774 62.6683 50.2629 62.6085 50.2495C62.5748 50.0402 62.5241 49.2957 63.0544 47.5949C63.5605 45.8625 64.305 44.5476 65.2045 43.7921C66.0286 43.1295 66.7917 42.8334 67.6779 42.8334C67.7853 42.8334 67.8625 42.8395 67.9162 42.8468C67.9482 43.0822 67.9699 43.7818 67.5157 45.2769ZM105.473 45.2387C104.985 46.9159 104.329 48.1658 103.626 48.7593C103.053 49.2453 102.569 49.4807 102.146 49.4807C102.103 49.4807 102.064 49.4795 102.029 49.4783C102.039 49.1858 102.105 48.5991 102.407 47.6191C103.063 45.4705 103.803 44.5488 104.31 44.1526C104.889 43.6774 105.387 43.4287 105.91 43.3552C105.879 43.7102 105.778 44.3012 105.485 45.2005L105.473 45.2387ZM217.162 28.5551L221.378 14.9656L199.712 24.0042L199.158 24.236L197.821 28.5551H193.525L193.349 29.1213C191.537 28.3057 189.749 27.9089 187.885 27.9089C186.424 27.9089 185.036 28.1261 183.76 28.5551H166.791L163.58 38.8717C163.584 38.45 163.573 38.0186 163.544 37.5817C163.392 35.342 162.609 33.3578 161.342 31.9986C159.764 30.185 157.538 29.0157 154.727 28.5218C152.643 28.1037 149.817 27.9089 145.831 27.9089C143.499 27.9089 141.297 28.0679 139.099 28.3962C136.613 28.7821 134.79 29.2887 133.363 29.9884C131.248 30.9119 129.493 32.0344 128.153 33.3239C126.971 34.4076 125.891 35.788 124.854 37.538C124.642 36.4415 124.316 35.3863 123.884 34.3967C122.51 31.4368 119.415 27.9089 112.476 27.9089C110.762 27.9089 109.144 28.1255 107.536 28.5715L107.542 28.5551H89.0076L86.3399 37.1278C86.0304 36.2407 85.6232 35.3797 85.1279 34.5647C82.3359 30.148 77.1796 27.9089 69.8027 27.9089C63.7518 27.9089 58.3663 29.5393 53.7964 32.7559C52.9542 33.3518 52.1476 33.9907 51.3977 34.6558V34.6011C51.3977 28.2778 49.6904 23.8046 46.1799 20.9266C43.1207 18.3005 38.6105 17.0238 32.3913 17.0238C24.9715 17.0238 18.4404 19.0347 12.9783 23.0024C7.5463 26.9824 3.68227 32.6528 1.49477 39.8541C-0.275866 45.4778 -0.474346 50.3048 0.904155 54.2034C2.38099 58.2749 4.82489 61.1765 8.16708 62.8246C11.1708 64.3354 15.2641 65.1006 20.3329 65.1006C24.5492 65.1006 28.2383 64.5053 31.2957 63.33C34.3815 62.2032 37.3038 60.4429 39.983 58.0971C41.2053 56.9915 42.5494 55.5274 43.7795 53.9625C44.434 57.0231 46.0297 59.1869 47.2646 60.4708C50.2847 63.5096 54.7743 65.0508 60.6099 65.0508C66.7416 65.0508 72.1917 63.4046 76.8074 60.1559C77.9518 59.3501 79.0221 58.4648 79.9928 57.5206L74.4926 75.1927H93.8803L97.3939 63.9726C99.0849 64.6886 101.032 65.0508 103.183 65.0508C107.697 65.0508 111.922 63.5315 115.738 60.5333C116.828 59.6729 117.854 58.6814 118.789 57.585C119.134 58.9982 119.82 60.2852 120.83 61.412C122.961 63.8603 126.306 65.0508 131.056 65.0508C134.189 65.0508 137.125 64.5794 139.785 63.6486C140.222 63.4932 140.669 63.3154 141.116 63.1201L141.541 64.4028H174.978L178.753 52.2628C180.325 47.2381 181.765 45.2308 182.48 44.4851C183.172 43.8637 183.634 43.7782 184.031 43.7782C184.077 43.7782 184.506 43.7915 185.553 44.2563L188.16 45.4153L189.399 43.9135L193.044 43.9226L191.444 49.0669C190.193 52.8982 189.772 55.6305 190.117 57.6645C190.479 60.1523 191.812 62.2117 193.871 63.4617C195.63 64.546 198.173 65.0508 201.873 65.0508C204.573 65.0508 207.587 64.7274 210.832 64.0891L212.407 63.779L213.246 63.6128L216.492 47.6003L210.684 49.3139L212.347 43.9262H218.715L223.488 28.5551H217.162Z" fill="white"/>
<path fill-rule="evenodd" clip-rule="evenodd" d="M30.6086 43.5586L29.811 44.8201C28.8591 46.3243 27.8872 47.4493 26.9123 48.1684C25.7347 49.0998 24.2186 49.5731 22.4081 49.5731C20.9524 49.5731 20.0125 49.2132 19.6143 48.5009C19.4828 48.2709 18.9079 46.8638 20.4855 41.7534C21.4869 38.6461 22.6772 36.4028 24.0268 35.0836C25.719 33.3798 27.6308 32.5515 29.8702 32.5515C30.6828 32.5515 31.3349 32.685 31.8061 32.9465C32.3659 33.2639 32.7092 33.6741 32.8088 34.8336L33.0211 37.3239H50.1007C48.4151 39.1964 47.0824 41.2807 46.1178 43.5586H30.6086ZM68.4537 45.5628C67.7919 47.6805 66.9425 49.1817 65.9326 50.0203C64.8799 50.8679 63.9261 51.2636 62.9301 51.2636C62.0457 51.2636 61.8647 50.9523 61.7434 50.7429C61.6964 50.6647 61.3084 49.9013 62.1193 47.2964C62.6851 45.3632 63.5122 43.9294 64.5728 43.0386C65.5821 42.2261 66.5685 41.8475 67.6779 41.8475C68.4935 41.8475 68.6353 42.0908 68.7904 42.356C68.8079 42.3839 69.2115 43.0714 68.4537 45.5628ZM101.47 47.3267C102.049 45.4336 102.822 44.0671 103.713 43.3711C104.564 42.6721 105.369 42.3456 106.246 42.3456C106.696 42.3456 106.727 42.4009 106.83 42.5908C106.92 42.7437 107.034 43.6078 106.414 45.5155C105.864 47.4044 105.118 48.7879 104.257 49.5148C103.5 50.1556 102.809 50.4669 102.146 50.4669C101.344 50.4669 101.21 50.2417 101.122 50.0943C101.119 50.0876 100.813 49.4626 101.47 47.3267ZM123.283 46.8431C123.677 45.4372 123.944 44.0665 124.079 42.7552L129.224 43.2801C127.353 43.919 125.831 44.7079 124.601 45.6739C124.135 46.0367 123.695 46.4281 123.283 46.8431ZM217.995 42.9403L222.155 29.5413H215.83L219.817 16.6841L199.957 24.9697L198.543 29.5413H194.245L193.943 30.5133C191.92 29.4248 189.935 28.895 187.885 28.895C186.47 28.895 185.14 29.1123 183.923 29.5413H167.512L157.782 60.8028L157.691 60.2507C157.474 58.9303 157.452 58.2732 157.472 57.9576C157.495 57.6263 157.615 56.92 158.049 55.4437L161.942 42.9118C162.486 41.2619 162.69 39.5399 162.566 37.6461C162.428 35.6243 161.735 33.8519 160.62 32.6644C159.192 31.0164 157.151 29.949 154.563 29.4945C152.524 29.0856 149.75 28.895 145.831 28.895C143.547 28.895 141.392 29.0504 139.242 29.3726C136.849 29.7439 135.108 30.2251 133.78 30.8816C131.759 31.7609 130.093 32.8228 128.834 34.0333C127.493 35.2645 126.277 36.9125 125.115 39.072L124.177 40.8172C124.178 38.6291 123.78 36.6079 122.984 34.7887C121.736 32.1001 118.899 28.895 112.476 28.895C110.237 28.895 108.121 29.2937 106.036 30.1104L106.211 29.5413H89.7279L86.1088 41.1691C86.0165 38.9561 85.4078 36.9143 84.2893 35.0764C81.6964 30.9745 76.8225 28.895 69.8027 28.895C63.9569 28.895 58.7608 30.4654 54.358 33.5642C52.889 34.6043 51.5745 35.7438 50.4174 36.9792V34.6012C50.4174 28.5929 48.8277 24.3696 45.5646 21.6931C42.6767 19.2144 38.3674 18.0099 32.3913 18.0099C25.182 18.0099 18.8434 19.9583 13.5514 23.8017C8.29736 27.6523 4.5564 33.1504 2.43285 40.1406C0.726157 45.561 0.522248 50.1817 1.82836 53.8746C3.21349 57.6931 5.49149 60.4066 8.59659 61.9387C11.4694 63.3823 15.4179 64.1147 20.3329 64.1147C24.4285 64.1147 28 63.5407 30.9434 62.4108C33.9278 61.3198 36.7524 59.6184 39.3423 57.3514C41.0629 55.795 42.9638 53.5694 44.4581 51.3795C44.5698 55.3933 46.3905 58.1445 47.9717 59.7883C50.792 62.6256 55.0446 64.0649 60.6098 64.0649C66.5371 64.0649 71.7977 62.4782 76.2457 59.3478C78.7295 57.5984 80.7873 55.5153 82.386 53.1331L75.8265 74.2067H93.1612L96.793 62.6111C97.0113 62.7233 97.2346 62.8283 97.4572 62.9236C99.0981 63.6814 101.024 64.0649 103.183 64.0649C107.473 64.0649 111.494 62.6159 115.135 59.7561C116.785 58.4534 118.258 56.8581 119.527 55.0026C119.4 57.6973 120.516 59.5893 121.556 60.7501C123.498 62.9806 126.605 64.0649 131.056 64.0649C134.078 64.0649 136.907 63.6117 139.464 62.7173C140.188 62.4594 140.938 62.139 141.697 61.7616L142.247 63.4169H174.258L177.817 51.9699C179.382 46.9687 180.851 44.7479 181.796 43.7783C182.544 43.0962 183.234 42.7922 184.031 42.7922C184.227 42.7922 184.806 42.8468 185.949 43.3541L187.879 44.2127L188.94 42.9269L194.378 42.9391L192.381 49.3583C191.175 53.053 190.764 55.644 191.085 57.5062C191.4 59.7046 192.57 61.5201 194.376 62.6177C195.979 63.6056 198.362 64.0649 201.873 64.0649C204.509 64.0649 207.459 63.7476 210.643 63.1214L212.416 62.7725L215.206 49.0069L210.894 50.28C210.277 50.4614 209.717 50.6082 209.225 50.715L211.625 42.9403H217.995Z" fill="#0A0A08"/>
<path fill-rule="evenodd" clip-rule="evenodd" d="M44.2509 46.2819C42.9176 49.3625 40.0008 53.0906 37.5309 55.3266C35.256 57.3175 32.7354 58.8575 30.0182 59.8514C27.3005 60.8939 24.0403 61.392 20.3325 61.392C15.785 61.392 12.2781 60.7452 9.80706 59.5025C7.28715 58.2598 5.50686 56.0723 4.37209 52.9413C3.28135 49.8601 3.48043 45.8334 5.01338 40.9622C6.99094 34.4544 10.4001 29.4794 15.1449 26.0031C19.9368 22.5238 25.6698 20.7325 32.391 20.7325C37.6281 20.7325 41.4336 21.7277 43.8063 23.7653C47.0182 26.3981 47.7101 30.7239 47.7101 34.6012H35.5057C35.3567 32.8616 34.7136 31.469 33.1336 30.5746C32.2413 30.077 31.1554 29.8283 29.8698 29.8283C26.9542 29.8283 24.3347 30.9211 22.111 33.1589C20.4321 34.8003 19.0469 37.3846 17.9098 40.9124C16.5759 45.2364 16.3304 48.2211 17.2679 49.8601C18.1583 51.4529 19.8885 52.2957 22.4078 52.2957C24.8795 52.2957 26.9542 51.5991 28.5861 50.3085C29.8698 49.3625 31.0559 47.9232 32.0948 46.2819H44.2509Z" fill="white"/>
<path fill-rule="evenodd" clip-rule="evenodd" d="M71.0365 46.3808C70.1973 49.0658 69.0601 50.9547 67.6255 52.1452C66.1433 53.34 64.6127 53.9862 62.9302 53.9862C61.3013 53.9862 60.1147 53.34 59.4233 52.1452C58.6813 50.9056 58.7313 49.0658 59.5222 46.527C60.2631 43.9943 61.3991 42.1557 62.8807 40.9124C64.3636 39.7177 65.9466 39.1248 67.678 39.1248C69.2562 39.1248 70.3928 39.7177 71.0866 40.9124C71.8274 42.1054 71.7767 43.9463 71.0365 46.3808ZM82.0054 36.5381C79.9313 33.2572 75.8797 31.6177 69.8028 31.6177C64.512 31.6177 59.8661 33.0115 55.9158 35.7924C51.9112 38.626 49.2411 42.2055 47.9084 46.527C46.4262 51.2017 47.1175 54.9807 49.8866 57.863C52.158 60.1487 55.7155 61.3423 60.61 61.3423C66.0425 61.3423 70.7397 59.8999 74.693 57.1172C78.6457 54.3339 81.2664 50.7545 82.6485 46.3808C83.884 42.504 83.6379 39.2231 82.0054 36.5381Z" fill="white"/>
<path fill-rule="evenodd" clip-rule="evenodd" d="M109.012 46.2819C108.273 48.8164 107.235 50.5554 105.999 51.5991C104.764 52.644 103.48 53.1907 102.145 53.1907C100.613 53.1907 99.4758 52.644 98.8333 51.5481C98.1419 50.4571 98.1932 48.7673 98.8822 46.527C99.6248 44.0956 100.662 42.3044 101.999 41.2625C103.331 40.1679 104.713 39.6224 106.246 39.6224C107.581 39.6224 108.57 40.1193 109.164 41.211C109.803 42.3044 109.757 43.9943 109.012 46.2819ZM120.53 35.941C119.193 33.0606 116.526 31.6177 112.475 31.6177C110.448 31.6177 108.471 32.0145 106.495 32.8616C105.061 33.4568 103.331 34.6486 101.257 36.4386L102.54 32.2639H91.717L79.5107 71.4841H91.1752L95.426 57.9121C96.215 59.0559 97.3028 59.8999 98.5872 60.4479C99.8721 61.0413 101.404 61.3423 103.182 61.3423C106.839 61.3423 110.3 60.0978 113.462 57.6148C116.674 55.079 118.997 51.5002 120.478 46.777C121.815 42.4536 121.815 38.8748 120.53 35.941Z" fill="white"/>
<path fill-rule="evenodd" clip-rule="evenodd" d="M145.932 48.9165C145.485 50.2587 144.938 51.4007 144.198 52.2466C143.457 53.0906 142.468 53.786 141.185 54.3837C139.9 54.9807 138.618 55.2787 137.279 55.2787C136.047 55.2787 135.204 54.9807 134.763 54.4328C134.267 53.8873 134.166 53.1907 134.463 52.3467C134.664 51.5991 135.204 50.9547 136.047 50.357C136.836 49.7606 138.514 49.2139 141.037 48.6162C142.915 48.1696 144.692 47.7218 146.47 47.1757L145.932 48.9165ZM159.865 37.8318C159.767 36.3913 159.322 35.2475 158.577 34.4544C157.543 33.2572 156.008 32.5121 154.033 32.1656C152.059 31.7682 149.287 31.6177 145.831 31.6177C143.655 31.6177 141.631 31.7682 139.653 32.0649C137.725 32.3622 136.093 32.7621 134.91 33.3585C133.179 34.1037 131.749 34.9981 130.661 36.043C129.525 37.086 128.487 38.5259 127.497 40.3675L138.216 41.4597C139.061 40.2176 139.9 39.373 140.791 38.9246C141.928 38.3773 143.41 38.0799 145.336 38.0799C146.817 38.0799 147.758 38.3281 148.201 38.8748C148.6 39.4215 148.6 40.3675 148.201 41.7091C146.574 42.2055 145.087 42.6527 143.706 43.0016C142.273 43.2983 139.306 43.8978 134.712 44.7394C130.857 45.3856 128.04 46.4281 126.262 47.8231C124.484 49.2139 123.248 51.0051 122.605 53.1416C121.864 55.4783 122.212 57.4139 123.593 58.9558C124.979 60.5474 127.448 61.3423 131.056 61.3423C133.77 61.3423 136.291 60.943 138.563 60.1487C140.245 59.5517 142.076 58.559 144 57.2167C143.901 58.011 143.854 58.6069 143.854 59.0055C143.854 59.4054 143.949 59.9461 144.198 60.6942H155.02C154.824 59.5025 154.724 58.5092 154.772 57.7653C154.824 57.0177 155.071 55.9728 155.465 54.6324L159.373 42.0568C159.814 40.714 159.962 39.3232 159.865 37.8318Z" fill="white"/>
<path fill-rule="evenodd" clip-rule="evenodd" d="M169.5 32.2639H180.323L178.89 36.8852C180.571 34.898 182.102 33.5072 183.438 32.7621C184.771 31.966 186.252 31.6177 187.885 31.6177C189.615 31.6177 191.293 32.1152 193.021 33.1092L187.043 40.8639C185.809 40.3147 184.821 40.0696 184.031 40.0696C182.499 40.0696 181.162 40.663 179.926 41.8092C178.249 43.4985 176.664 46.5828 175.235 51.1513L172.267 60.6942H160.651L169.5 32.2639Z" fill="white"/>
<path fill-rule="evenodd" clip-rule="evenodd" d="M215.509 21.4292L212.15 32.264H218.474L216.004 40.2177H209.63L206.515 50.3085C206.118 51.5003 206.02 52.2958 206.118 52.6932C206.316 53.2909 206.861 53.6392 207.845 53.6392C208.689 53.6392 209.971 53.3898 211.655 52.8916L210.123 60.4479C207.109 61.0414 204.34 61.3423 201.873 61.3423C198.958 61.3423 196.928 60.9965 195.792 60.2962C194.653 59.6039 193.964 58.5093 193.765 57.1173C193.516 55.678 193.915 53.3898 194.953 50.2078L198.061 40.2177H193.765L196.236 32.264H200.534L202.166 26.9965L215.509 21.4292Z" fill="white"/>
</svg>
