<svg width="12" height="19" viewBox="0 0 12 19" fill="none" xmlns="http://www.w3.org/2000/svg">
<path d="M9.5625 0.820312C10.0195 0.820312 10.4062 0.996094 10.7578 1.3125C11.0742 1.66406 11.25 2.05078 11.25 2.50781V17.1328C11.25 17.625 11.0742 18.0117 10.7578 18.3281C10.4062 18.6797 10.0195 18.8203 9.5625 18.8203H1.6875C1.19531 18.8203 0.808594 18.6797 0.492188 18.3281C0.140625 18.0117 0 17.625 0 17.1328V2.50781C0 2.05078 0.140625 1.66406 0.492188 1.3125C0.808594 0.996094 1.19531 0.820312 1.6875 0.820312H9.5625ZM5.625 17.6953C5.90625 17.6953 6.1875 17.5898 6.39844 17.3789C6.60938 17.168 6.75 16.8867 6.75 16.5703C6.75 16.2891 6.60938 16.0078 6.39844 15.7969C6.1875 15.5859 5.90625 15.4453 5.625 15.4453C5.30859 15.4453 5.02734 15.5859 4.81641 15.7969C4.60547 16.0078 4.5 16.2891 4.5 16.5703C4.5 16.8867 4.60547 17.168 4.81641 17.3789C5.02734 17.5898 5.30859 17.6953 5.625 17.6953Z" fill="white" fill-opacity="0.5"/>
</svg>
