<svg width="18" height="19" viewBox="0 0 18 19" fill="none" xmlns="http://www.w3.org/2000/svg">
<path d="M6.36328 8.76562V10.4414H11.4023V12.5977H7.07812C7.10938 12.6602 7.15234 12.7539 7.20703 12.8789C7.26953 12.9961 7.41797 13.207 7.65234 13.5117C7.89453 13.8164 8.16016 14.0859 8.44922 14.3203C8.73828 14.5469 9.13672 14.7578 9.64453 14.9531C10.1602 15.1406 10.707 15.2344 11.2852 15.2344C11.9883 15.2344 12.6602 15.0898 13.3008 14.8008C13.9414 14.5039 14.4023 14.2031 14.6836 13.8984L15.1172 13.4414L17.1562 15.5977C17.1094 15.6758 17.0391 15.7773 16.9453 15.9023C16.8516 16.0195 16.625 16.2383 16.2656 16.5586C15.9141 16.8789 15.5312 17.1602 15.1172 17.4023C14.7031 17.6445 14.1523 17.8633 13.4648 18.0586C12.7773 18.2617 12.0508 18.3633 11.2852 18.3633C10.4727 18.3633 9.69141 18.2578 8.94141 18.0469C8.19922 17.8359 7.5625 17.5586 7.03125 17.2148C6.5 16.8711 6.00781 16.4961 5.55469 16.0898C5.10156 15.6836 4.73047 15.2773 4.44141 14.8711C4.15234 14.4648 3.90234 14.0898 3.69141 13.7461C3.48828 13.3945 3.34766 13.1172 3.26953 12.9141L3.11719 12.5977H0.84375V10.4414H2.76562V8.76562H0.84375V6.59766H3.11719C3.17969 6.44141 3.26953 6.23438 3.38672 5.97656C3.51172 5.71875 3.80469 5.25781 4.26562 4.59375C4.73438 3.92969 5.25 3.34766 5.8125 2.84766C6.38281 2.33984 7.15625 1.87891 8.13281 1.46484C9.10938 1.05078 10.1602 0.84375 11.2852 0.84375C12.0508 0.84375 12.7734 0.9375 13.4531 1.125C14.1328 1.30469 14.6875 1.52344 15.1172 1.78125C15.5547 2.03125 15.9375 2.28516 16.2656 2.54297C16.5938 2.80078 16.8203 3.02344 16.9453 3.21094L17.1562 3.48047L15 5.63672C14.9688 5.58984 14.9141 5.53125 14.8359 5.46094C14.7656 5.39062 14.6094 5.26172 14.3672 5.07422C14.1328 4.87891 13.8828 4.70703 13.6172 4.55859C13.3516 4.40234 13.0078 4.26562 12.5859 4.14844C12.1641 4.02344 11.7305 3.96094 11.2852 3.96094C10.707 3.96094 10.1641 4.05469 9.65625 4.24219C9.15625 4.42188 8.75391 4.64062 8.44922 4.89844C8.14453 5.15625 7.88281 5.41406 7.66406 5.67188C7.45312 5.92188 7.29688 6.14453 7.19531 6.33984L7.07812 6.59766H11.4023V8.76562H6.36328Z" fill="#888888"/>
</svg>
