<svg width="13" height="23" viewBox="0 0 13 23" fill="none" xmlns="http://www.w3.org/2000/svg">
<path d="M8.42578 3.00781C9.19141 3.16406 9.89453 3.42187 10.5352 3.78125C11.1758 4.13281 11.6211 4.44141 11.8711 4.70703L12.2578 5.11719L10.1016 7.40234C10.0078 7.29297 9.875 7.16016 9.70312 7.00391C9.53906 6.83984 9.1875 6.625 8.64844 6.35938C8.10938 6.09375 7.55469 5.96094 6.98438 5.96094C6.29688 5.96094 5.74219 6.13672 5.32031 6.48828C4.90625 6.83984 4.69922 7.26562 4.69922 7.76562C4.69922 8.32812 4.98047 8.78125 5.54297 9.125C6.11328 9.46094 6.80078 9.74609 7.60547 9.98047C8.41797 10.2148 9.23047 10.4883 10.043 10.8008C10.8633 11.1133 11.5586 11.6289 12.1289 12.3477C12.6992 13.0664 12.9844 13.9766 12.9844 15.0781C12.9844 16.3594 12.582 17.4609 11.7773 18.3828C10.9805 19.3047 9.86328 19.9062 8.42578 20.1875V22.5195H5.29688V20.2695C4.67188 20.1758 4.07031 20.0195 3.49219 19.8008C2.92188 19.582 2.44922 19.3555 2.07422 19.1211C1.69922 18.8789 1.36719 18.6406 1.07812 18.4062C0.789062 18.1719 0.582031 17.9844 0.457031 17.8438L0.257812 17.5977L2.42578 15.4414C2.53516 15.5664 2.6875 15.7305 2.88281 15.9336C3.08594 16.1289 3.53125 16.3945 4.21875 16.7305C4.90625 17.0664 5.625 17.2344 6.375 17.2344C7.24219 17.2344 7.91797 17.0312 8.40234 16.625C8.89453 16.2188 9.14062 15.7031 9.14062 15.0781C9.14062 14.5156 8.85547 14.0625 8.28516 13.7188C7.72266 13.375 7.03125 13.0898 6.21094 12.8633C5.39844 12.6289 4.58594 12.3555 3.77344 12.043C2.96875 11.7305 2.28125 11.2148 1.71094 10.4961C1.14062 9.77734 0.855469 8.86719 0.855469 7.76562C0.855469 6.61719 1.25391 5.59375 2.05078 4.69531C2.85547 3.79687 3.9375 3.22656 5.29688 2.98438V0.675781H8.42578V3.00781Z" fill="white"/>
</svg>
