<svg width="14" height="19" viewBox="0 0 14 19" fill="none" xmlns="http://www.w3.org/2000/svg">
<path d="M6.208 12.168C6.208 11.336 6.392 10.648 6.76 10.104C7.144 9.56 7.696 8.96 8.416 8.304C8.944 7.824 9.328 7.424 9.568 7.104C9.824 6.768 9.952 6.392 9.952 5.976C9.952 5.384 9.712 4.92 9.232 4.584C8.768 4.232 8.144 4.056 7.36 4.056C6.608 4.056 5.936 4.216 5.344 4.536C4.768 4.84 4.28 5.272 3.88 5.832L0.976 4.128C1.648 3.104 2.552 2.312 3.688 1.752C4.84 1.192 6.2 0.912 7.768 0.912C9.608 0.912 11.08 1.304 12.184 2.088C13.304 2.872 13.864 3.96 13.864 5.352C13.864 6.008 13.752 6.584 13.528 7.08C13.32 7.576 13.056 8 12.736 8.352C12.432 8.688 12.032 9.08 11.536 9.528C10.944 10.056 10.512 10.504 10.24 10.872C9.968 11.224 9.832 11.656 9.832 12.168H6.208ZM8.032 18.192C7.376 18.192 6.824 17.984 6.376 17.568C5.944 17.136 5.728 16.616 5.728 16.008C5.728 15.4 5.944 14.896 6.376 14.496C6.808 14.08 7.36 13.872 8.032 13.872C8.704 13.872 9.256 14.08 9.688 14.496C10.12 14.896 10.336 15.4 10.336 16.008C10.336 16.616 10.112 17.136 9.664 17.568C9.232 17.984 8.688 18.192 8.032 18.192Z" fill="white"/>
</svg>
